<?xml version="1.0" encoding="UTF-8" standalone="no"?>
<!DOCTYPE svg PUBLIC "-//W3C//DTD SVG 1.1//EN"
 "http://www.w3.org/Graphics/SVG/1.1/DTD/svg11.dtd">
<!-- Generated by graphviz version 2.30.1 (20130222.1704)
 -->
<!-- Title: TEST Pages: 1 -->
<svg width="272pt" height="260pt"
 viewBox="0.00 0.00 272.00 260.00" xmlns="http://www.w3.org/2000/svg" xmlns:xlink="http://www.w3.org/1999/xlink">
<g id="graph0" class="graph" transform="scale(1 1) rotate(0) translate(4 256)">
<title>TEST</title>
<polygon fill="white" stroke="white" points="-4,5 -4,-256 269,-256 269,5 -4,5"/>
<!-- Start -->
<g id="node1" class="node"><title>Start</title>
<ellipse fill="lightgrey" stroke="black" cx="146" cy="-234" rx="28.9133" ry="18"/>
<text text-anchor="middle" x="146" y="-229.8" font-family="Times,serif" font-size="14.00">Start</text>
</g>
<!-- Scene 2 -->
<g id="node2" class="node"><title>Scene 2</title>
<ellipse fill="none" stroke="black" cx="146" cy="-162" rx="41.0055" ry="18"/>
<text text-anchor="middle" x="146" y="-157.8" font-family="Times,serif" font-size="14.00">Scene 2</text>
</g>
<!-- Start&#45;&gt;Scene 2 -->
<g id="edge1" class="edge"><title>Start&#45;&gt;Scene 2</title>
<path fill="none" stroke="black" d="M140.122,-216.055C139.304,-208.346 139.061,-199.027 139.395,-190.364"/>
<polygon fill="black" stroke="black" points="142.894,-190.491 140.087,-180.275 135.911,-190.012 142.894,-190.491"/>
</g>
<!-- The End -->
<g id="node3" class="node"><title>The End</title>
<ellipse fill="none" stroke="black" cx="220" cy="-18" rx="44.0326" ry="18"/>
<text text-anchor="middle" x="220" y="-13.8" font-family="Times,serif" font-size="14.00">The End</text>
</g>
<!-- Start&#45;&gt;The End -->
<g id="edge2" class="edge"><title>Start&#45;&gt;The End</title>
<path fill="none" stroke="black" d="M162.778,-218.677C173.524,-208.748 187.078,-194.709 196,-180 213.568,-151.038 215.366,-141.402 221,-108 223.661,-92.2229 221.151,-87.9993 221,-72 220.922,-63.6817 220.774,-54.63 220.616,-46.3999"/>
<polygon fill="black" stroke="black" points="224.11,-46.1108 220.406,-36.1846 217.112,-46.2542 224.11,-46.1108"/>
</g>
<!-- Scene 2&#45;&gt;Start -->
<g id="edge3" class="edge"><title>Scene 2&#45;&gt;Start</title>
<path fill="none" stroke="black" d="M151.913,-180.275C152.715,-188.03 152.94,-197.362 152.591,-206.005"/>
<polygon fill="black" stroke="black" points="149.094,-205.832 151.878,-216.055 156.077,-206.327 149.094,-205.832"/>
</g>
<!-- Scene 3 -->
<g id="node4" class="node"><title>Scene 3</title>
<ellipse fill="none" stroke="black" cx="41" cy="-90" rx="41.0055" ry="18"/>
<text text-anchor="middle" x="41" y="-85.8" font-family="Times,serif" font-size="14.00">Scene 3</text>
</g>
<!-- Scene 2&#45;&gt;Scene 3 -->
<g id="edge4" class="edge"><title>Scene 2&#45;&gt;Scene 3</title>
<path fill="none" stroke="black" d="M120.568,-147.669C104.311,-137.762 83.4383,-124.036 67.0738,-112.574"/>
<polygon fill="black" stroke="black" points="68.6816,-109.423 58.5042,-106.478 64.624,-115.127 68.6816,-109.423"/>
</g>
<!-- Scene 2&#45;&gt;Scene 3 -->
<g id="edge5" class="edge"><title>Scene 2&#45;&gt;Scene 3</title>
<path fill="none" stroke="black" d="M128.417,-145.465C113.918,-134.969 93.155,-121.049 75.435,-109.909"/>
<polygon fill="black" stroke="black" points="76.8392,-106.662 66.4952,-104.37 73.1522,-112.612 76.8392,-106.662"/>
</g>
<!-- Scene 2a -->
<g id="node5" class="node"><title>Scene 2a</title>
<ellipse fill="none" stroke="black" cx="146" cy="-90" rx="45.4338" ry="18"/>
<text text-anchor="middle" x="146" y="-85.8" font-family="Times,serif" font-size="14.00">Scene 2a</text>
</g>
<!-- Scene 2&#45;&gt;Scene 2a -->
<g id="edge6" class="edge"><title>Scene 2&#45;&gt;Scene 2a</title>
<path fill="none" stroke="black" d="M140.122,-144.055C139.304,-136.346 139.061,-127.027 139.395,-118.364"/>
<polygon fill="black" stroke="black" points="142.894,-118.491 140.087,-108.275 135.911,-118.012 142.894,-118.491"/>
</g>
<!-- Scene 2&#45;&gt;The End -->
<g id="edge7" class="edge"><title>Scene 2&#45;&gt;The End</title>
<path fill="none" stroke="black" d="M166.065,-146.186C177.687,-136.562 191.631,-123.036 200,-108 210.623,-88.9138 215.605,-64.5584 217.941,-46.1523"/>
<polygon fill="black" stroke="black" points="221.433,-46.4066 219.033,-36.0874 214.474,-45.6515 221.433,-46.4066"/>
</g>
<!-- Scene 4 -->
<g id="node6" class="node"><title>Scene 4</title>
<ellipse fill="none" stroke="black" cx="41" cy="-18" rx="41.0055" ry="18"/>
<text text-anchor="middle" x="41" y="-13.8" font-family="Times,serif" font-size="14.00">Scene 4</text>
</g>
<!-- Scene 3&#45;&gt;Scene 4 -->
<g id="edge9" class="edge"><title>Scene 3&#45;&gt;Scene 4</title>
<path fill="none" stroke="black" d="M41,-71.6966C41,-63.9827 41,-54.7125 41,-46.1124"/>
<polygon fill="black" stroke="black" points="44.5001,-46.1043 41,-36.1043 37.5001,-46.1044 44.5001,-46.1043"/>
</g>
<!-- Scene 3&#45;&gt;The End -->
<g id="edge10" class="edge"><title>Scene 3&#45;&gt;The End</title>
<path fill="none" stroke="black" d="M70.5582,-77.4409C100.383,-65.7777 146.643,-47.6872 179.792,-34.7238"/>
<polygon fill="black" stroke="black" points="181.159,-37.9476 189.197,-31.0459 178.609,-31.4283 181.159,-37.9476"/>
</g>
<!-- Scene 2a&#45;&gt;Scene 2 -->
<g id="edge8" class="edge"><title>Scene 2a&#45;&gt;Scene 2</title>
<path fill="none" stroke="black" d="M151.913,-108.275C152.715,-116.03 152.94,-125.362 152.591,-134.005"/>
<polygon fill="black" stroke="black" points="149.094,-133.832 151.878,-144.055 156.077,-134.327 149.094,-133.832"/>
</g>
</g>
</svg>
