<!--?xml version="1.0" encoding="UTF-8" standalone="no"?-->

<!-- Generated by graphviz version 2.28.0 (20110507.0327)
 -->
<!-- Title: TEST Pages: 1 -->
<svg width="272pt" height="292pt" viewBox="0.00 0.00 272.00 292.00" xmlns="http://www.w3.org/2000/svg" xmlns:xlink="http://www.w3.org/1999/xlink">
<g id="graph1" class="graph" transform="scale(1 1) rotate(0) translate(4 288)">
<title>TEST</title>
<polygon fill="white" stroke="white" points="-4,5 -4,-288 269,-288 269,5 -4,5"></polygon>
<!-- Start -->
<g id="node1" class="node"><title>Start</title>
<ellipse fill="#d8c149" stroke="black" cx="146" cy="-250" rx="28.9563" ry="29.0759"></ellipse>
<ellipse fill="none" stroke="black" cx="146" cy="-250" rx="32.9129" ry="33.0488"></ellipse>
<text text-anchor="middle" x="146" y="-245.8" font-family="Times,serif" font-size="14.00">Start</text>
</g>
<!-- Scene 2 -->
<g id="node3" class="node"><title>Scene 2</title>
<ellipse fill="#aad849" stroke="black" cx="146" cy="-162" rx="41.0055" ry="18"></ellipse>
<text text-anchor="middle" x="146" y="-157.8" font-family="Times,serif" font-size="14.00">Scene 2</text>
</g>
<!-- Start&#45;&gt;Scene 2 -->
<g id="edge2" class="edge"><title>Start-&gt;Scene 2</title>
<path fill="none" stroke="black" d="M127.096,-222.26C125.249,-211.61 125.303,-199.399 127.257,-188.839"></path>
<polygon fill="black" stroke="black" points="130.7,-189.51 129.845,-178.949 123.928,-187.737 130.7,-189.51"></polygon>
</g>
<!-- The End -->
<g id="node5" class="node"><title>The End</title>
<ellipse fill="none" stroke="black" cx="220" cy="-18" rx="44.0326" ry="18"></ellipse>
<text text-anchor="middle" x="220" y="-13.8" font-family="Times,serif" font-size="14.00">The End</text>
</g>
<!-- Start&#45;&gt;The End -->
<g id="edge4" class="edge"><title>Start-&gt;The End</title>
<path fill="none" stroke="black" d="M166.972,-224.003C176.779,-211.402 188.026,-195.529 196,-180 211.409,-149.994 214.597,-141.295 220,-108 223.32,-87.5387 223.161,-64.081 222.257,-46.3867"></path>
<polygon fill="black" stroke="black" points="225.737,-45.9558 221.622,-36.1926 218.75,-46.3908 225.737,-45.9558"></polygon>
</g>
<!-- Scene 2&#45;&gt;Start -->
<g id="edge6" class="edge"><title>Scene 2-&gt;Start</title>
<path fill="none" stroke="black" d="M140.512,-179.85C139.649,-187.607 139.228,-197.194 139.251,-206.733"></path>
<polygon fill="black" stroke="black" points="135.756,-207.047 139.449,-216.977 142.755,-206.911 135.756,-207.047"></polygon>
</g>
<!-- Scene 2&#45;&gt;Start -->
<g id="edge8" class="edge"><title>Scene 2-&gt;Start</title>
<path fill="none" stroke="black" d="M151.488,-179.85C152.351,-187.607 152.772,-197.194 152.749,-206.733"></path>
<polygon fill="black" stroke="black" points="149.245,-206.911 152.551,-216.977 156.244,-207.047 149.245,-206.911"></polygon>
</g>
<!-- Scene 2&#45;&gt;Start -->
<g id="edge10" class="edge"><title>Scene 2-&gt;Start</title>
<path fill="none" stroke="black" d="M162.155,-178.949C165.477,-188.335 166.778,-200.616 166.057,-212.27"></path>
<polygon fill="black" stroke="black" points="162.574,-211.925 164.904,-222.26 169.528,-212.728 162.574,-211.925"></polygon>
</g>
<!-- Scene 2&#45;&gt;The End -->
<g id="edge20" class="edge"><title>Scene 2-&gt;The End</title>
<path fill="none" stroke="black" d="M166.065,-146.186C177.687,-136.562 191.631,-123.036 200,-108 210.623,-88.9138 215.605,-64.5584 217.941,-46.1523"></path>
<polygon fill="black" stroke="black" points="221.433,-46.4066 219.033,-36.0874 214.474,-45.6515 221.433,-46.4066"></polygon>
</g>
<!-- Scene 3 -->
<g id="node10" class="node"><title>Scene 3</title>
<ellipse fill="#d8d349" stroke="black" cx="41" cy="-90" rx="41.0055" ry="18"></ellipse>
<text text-anchor="middle" x="41" y="-85.8" font-family="Times,serif" font-size="14.00">Scene 3</text>
</g>
<!-- Scene 2&#45;&gt;Scene 3 -->
<g id="edge12" class="edge"><title>Scene 2-&gt;Scene 3</title>
<path fill="none" stroke="black" d="M120.568,-147.669C104.311,-137.762 83.4383,-124.036 67.0738,-112.574"></path>
<polygon fill="black" stroke="black" points="68.6816,-109.423 58.5042,-106.478 64.624,-115.127 68.6816,-109.423"></polygon>
</g>
<!-- Scene 2&#45;&gt;Scene 3 -->
<g id="edge14" class="edge"><title>Scene 2-&gt;Scene 3</title>
<path fill="none" stroke="black" d="M128.417,-145.465C113.918,-134.969 93.155,-121.049 75.435,-109.909"></path>
<polygon fill="black" stroke="black" points="76.8392,-106.662 66.4952,-104.37 73.1522,-112.612 76.8392,-106.662"></polygon>
</g>
<!-- Scene 2a -->
<g id="node13" class="node"><title>Scene 2a</title>
<ellipse fill="#d85a49" stroke="black" cx="146" cy="-90" rx="45.4338" ry="18"></ellipse>
<text text-anchor="middle" x="146" y="-85.8" font-family="Times,serif" font-size="14.00">Scene 2a</text>
</g>
<!-- Scene 2&#45;&gt;Scene 2a -->
<g id="edge16" class="edge"><title>Scene 2-&gt;Scene 2a</title>
<path fill="none" stroke="black" d="M140.122,-144.055C139.304,-136.346 139.061,-127.027 139.395,-118.364"></path>
<polygon fill="black" stroke="black" points="142.894,-118.491 140.087,-108.275 135.911,-118.012 142.894,-118.491"></polygon>
</g>
<!-- Scene 3&#45;&gt;The End -->
<g id="edge24" class="edge"><title>Scene 3-&gt;The End</title>
<path fill="none" stroke="black" d="M70.5582,-77.4409C100.383,-65.7777 146.643,-47.6872 179.792,-34.7238"></path>
<polygon fill="black" stroke="black" points="181.159,-37.9476 189.197,-31.0459 178.609,-31.4283 181.159,-37.9476"></polygon>
</g>
<!-- Scene 4 -->
<g id="node17" class="node"><title>Scene 4</title>
<ellipse fill="#4cd849" stroke="black" cx="41" cy="-18" rx="41.0055" ry="18"></ellipse>
<text text-anchor="middle" x="41" y="-13.8" font-family="Times,serif" font-size="14.00">Scene 4</text>
</g>
<!-- Scene 3&#45;&gt;Scene 4 -->
<g id="edge22" class="edge"><title>Scene 3-&gt;Scene 4</title>
<path fill="none" stroke="black" d="M41,-71.6966C41,-63.9827 41,-54.7125 41,-46.1124"></path>
<polygon fill="black" stroke="black" points="44.5001,-46.1043 41,-36.1043 37.5001,-46.1044 44.5001,-46.1043"></polygon>
</g>
<!-- Scene 2a&#45;&gt;Scene 2 -->
<g id="edge18" class="edge"><title>Scene 2a-&gt;Scene 2</title>
<path fill="none" stroke="black" d="M151.913,-108.275C152.715,-116.03 152.94,-125.362 152.591,-134.005"></path>
<polygon fill="black" stroke="black" points="149.094,-133.832 151.878,-144.055 156.077,-134.327 149.094,-133.832"></polygon>
</g>
</g>
</svg>
